<svg xmlns="http://www.w3.org/2000/svg" viewBox="0 0 314 314" xml:space="preserve" color="white">
  <path fill="currentcolor" d="M157 121.212c-19.733 0-35.788 16.055-35.788 35.788s16.055 35.788 35.788 35.788 35.788-16.055 35.788-35.788-16.055-35.788-35.788-35.788zm0 57.576c-12.014 0-21.788-9.774-21.788-21.788s9.774-21.788 21.788-21.788 21.788 9.774 21.788 21.788-9.774 21.788-21.788 21.788z"/>
  <path fill="currentcolor" d="M157 92.424c-35.607 0-64.576 28.969-64.576 64.576s28.969 64.576 64.576 64.576 64.576-28.969 64.576-64.576S192.607 92.424 157 92.424zm0 115.152c-27.888 0-50.576-22.689-50.576-50.576s22.688-50.576 50.576-50.576 50.576 22.689 50.576 50.576-22.688 50.576-50.576 50.576z"/>
  <path fill="currentcolor" d="M157 0C70.43 0 0 70.43 0 157s70.43 157 157 157 157-70.43 157-157S243.57 0 157 0zm0 300c-78.851 0-143-64.149-143-143S78.149 14 157 14s143 64.149 143 143-64.149 143-143 143z"/>
  <path fill="currentcolor" d="M258.278 81.66c-2.712-2.756-7.145-2.792-9.899-.081-2.756 2.711-2.792 7.144-.081 9.899 16.417 16.688 25.833 40.569 25.833 65.52 0 24.953-9.416 48.836-25.833 65.525-2.711 2.756-2.675 7.188.081 9.899 1.363 1.341 3.137 2.01 4.909 2.01 1.811 0 3.62-.698 4.99-2.091 18.972-19.286 29.853-46.747 29.853-75.343 0-28.594-10.881-56.053-29.853-75.338z"/>
  <path fill="currentcolor" d="M240.496 104.659c-2.712-2.757-7.144-2.792-9.899-.081-2.756 2.712-2.792 7.144-.081 9.899 10.64 10.814 16.741 26.312 16.741 42.521 0 16.211-6.102 31.71-16.741 42.524-2.711 2.756-2.675 7.188.081 9.898 1.363 1.342 3.137 2.011 4.909 2.011 1.811 0 3.62-.698 4.989-2.091 13.194-13.41 20.762-32.487 20.762-52.342 0-19.85-7.568-38.928-20.761-52.339z"/>
</svg>
