<svg xmlns="http://www.w3.org/2000/svg" width="400.521" height="400.521" xml:space="preserve" color="white">
  <path fill="currentcolor" d="m377.626 44.999-22.104-22.103c-30.526-30.527-80.022-30.527-110.551 0l-5.781 5.78 132.654 132.653 5.781-5.78c30.525-30.527 30.529-80.02.001-110.55zM193.851 74.02c-19.381 19.379-26.439 46.396-21.215 71.359L3.884 336.616c-5.424 6.145-5.133 15.447.662 21.24l38.117 38.119c5.794 5.795 15.098 6.084 21.242.662l191.236-168.752c24.961 5.225 51.982-1.834 71.36-21.215l23.845-23.846L217.695 50.173 193.851 74.02z"/>
</svg>
