<svg xmlns="http://www.w3.org/2000/svg" width="491.458" height="491.459" xml:space="preserve" color="white">
  <path fill="currentcolor" d="M383.645 313.783c-1.294-1.653-8.491-10.03-22.903-15.528-12.647-3.914-43.947-14.286-61.082-26.685-2.768-2.088-5.342-4.58-7.283-6.613 11.322-11.281 20.604-26.241 26.893-42.933-4.045-4.88-6.48-11.141-6.48-17.96v-64.711c0-5.375 1.515-10.402 4.136-14.681-14.341-26.887-40.847-42.262-71.195-42.262-30.555 0-57.212 15.587-71.482 42.813 2.419 4.157 3.813 8.982 3.813 14.129v64.711c0 6.582-2.274 12.639-6.069 17.441 6.291 16.902 15.65 32.055 27.089 43.452-1.941 2.034-4.515 4.524-7.283 6.614-17.134 12.396-48.433 22.77-61.081 26.684-14.412 5.498-21.609 13.875-22.903 15.527-26.505 39.35-29.509 127.631-29.532 128.508.237 11.748 3.728 15.764 4.932 16.258 58.999 26.25 128.448 32.912 162.517 32.912 34.068 0 103.518-6.662 162.516-32.912 1.205-.494 4.695-4.51 4.933-16.258-.027-.875-3.031-89.158-29.536-128.506z"/>
  <path fill="currentcolor" d="M119.485 171.732v31.591h7.305v1.08c0 12.75 10.335 23.084 23.083 23.084 12.749 0 23.084-10.333 23.084-23.084v-64.71c0-12.75-10.335-23.083-23.084-23.083-12.748 0-23.083 10.333-23.083 23.083v1.081h-4.171c.144-10.319.846-22.126 2.721-33.539.058.25.091.394.091.394s.403-1.294 1.063-3.724c.083-.303.17-.624.263-.963.114-.327.233-.671.359-1.031.239-.708.5-1.48.783-2.317.25-.822.623-1.704 1.002-2.639.376-.932.73-1.923 1.182-2.943 1.801-4.084 4.28-8.805 7.667-13.694 3.41-4.874 7.642-9.957 12.911-14.748 1.358-1.167 2.633-2.423 4.105-3.556.71-.58 1.429-1.167 2.153-1.757.751-.56 1.509-1.126 2.274-1.697.379-.283.76-.568 1.143-.855.396-.272.794-.546 1.193-.819.794-.547 1.595-1.098 2.401-1.654.815-.542 1.679-1.04 2.509-1.578.839-.532 1.667-1.08 2.559-1.565 3.462-2.057 7.157-3.937 10.965-5.748 3.86-1.727 7.812-3.433 11.971-4.854 8.252-2.972 17.091-5.16 26.171-6.723 1.13-.222 2.289-.326 3.428-.517 1.148-.153 2.284-.377 3.444-.479 2.315-.236 4.622-.543 6.958-.697 1.165-.083 2.327-.211 3.499-.264 1.17-.045 2.341-.096 3.513-.163 1.169-.083 2.345-.095 3.519-.105l1.765-.025.881-.013.44-.008.22-.003.11-.001c-.044-.001.021-.001.063-.001l3.655.058 1.959.029c.349-.001.597.022.879.036l.828.048c1.104.06 2.208.127 3.313.165 1.11.048 2.316.178 3.469.262 2.334.146 4.64.471 6.955.704 1.16.103 2.295.325 3.442.479 1.144.187 2.298.308 3.427.524 9.076 1.571 17.916 3.751 26.16 6.731 1.027.378 2.072.719 3.077 1.122 1.013.399 2.02.795 3.021 1.189 1.016.374 1.975.838 2.954 1.263.971.433 1.972.818 2.914 1.283 3.809 1.808 7.499 3.688 10.957 5.746.895.484 1.722 1.032 2.561 1.563.832.539 1.689 1.04 2.508 1.579.806.554 1.605 1.104 2.4 1.651.397.275.795.548 1.191.821.382.285.764.57 1.144.854.763.569 1.521 1.133 2.273 1.692.725.591 1.442 1.177 2.152 1.758 1.473 1.128 2.746 2.387 4.104 3.553 5.27 4.786 9.502 9.865 12.914 14.734 3.392 4.882 5.874 9.6 7.68 13.683.455 1.02.808 2.011 1.187 2.942.379.933.753 1.813 1.008 2.653.282.842.545 1.623.784 2.337.127.361.248.706.361 1.033.093.332.18.646.263.942.044.157.084.297.124.444 2.251 12.286 3.064 25.219 3.222 36.407h-4.772v-1.081c0-12.75-10.335-23.083-23.084-23.083s-23.084 10.333-23.084 23.083v64.71c0 12.75 10.335 23.084 23.084 23.084s23.084-10.333 23.084-23.084v-1.08h7.305v-31.655l3.646.38c.287-2.742 5.409-54.205-7.662-89.282-.409-2.421-.967-4.975-1.722-7.651-1.892-6.696-5.02-14.11-9.731-21.43-1.197-1.807-2.408-3.695-3.795-5.478-.678-.906-1.364-1.828-2.079-2.738-.744-.883-1.493-1.772-2.25-2.671-.381-.449-.764-.902-1.148-1.355-.393-.444-.807-.865-1.215-1.302-.822-.869-1.651-1.745-2.487-2.627-.853-.865-1.74-1.699-2.636-2.548-.896-.845-1.793-1.714-2.747-2.513-.949-.813-1.901-1.633-2.863-2.459-.971-.817-1.99-1.567-2.997-2.36-2.005-1.617-4.151-3.052-6.307-4.552-4.361-2.886-8.97-5.65-13.844-8.037-9.704-4.915-20.348-8.664-31.425-11.226-5.546-1.221-11.19-2.261-16.9-2.838-1.438-.147-2.823-.331-4.315-.444-1.498-.112-3-.195-4.5-.286l-1.125-.064c-.371-.021-.773-.049-1.078-.051l-1.959-.047-3.92-.088-4.624.095c-1.438.028-2.875.063-4.31.17l-4.301.288c-1.431.108-2.859.294-4.286.438-5.708.584-11.352 1.621-16.896 2.854-11.073 2.572-21.714 6.311-31.412 11.234-4.872 2.392-9.476 5.155-13.839 8.039-2.157 1.498-4.298 2.937-6.301 4.551-1.008.794-2.03 1.543-2.999 2.36-.961.826-1.914 1.646-2.862 2.46-.954.796-1.85 1.665-2.747 2.51-.893.85-1.78 1.686-2.633 2.548-.835.882-1.665 1.756-2.488 2.625-.408.436-.82.859-1.212 1.304-.385.454-.769.904-1.149 1.354-.756.897-1.506 1.786-2.25 2.667-.716.909-1.396 1.835-2.078 2.738-1.389 1.778-2.596 3.67-3.794 5.475-4.712 7.315-7.841 14.724-9.735 21.417-.475 1.678-.875 3.31-1.208 4.89-14.419 35.07-9.029 89.213-8.735 92.027l3.039-.312z"/>
</svg>
